<?xml version="1.0" encoding="utf-8"?>
<!-- Generator: Adobe Illustrator 25.2.3, SVG Export Plug-In . SVG Version: 6.00 Build 0)  -->
<svg version="1.1" id="Layer_1" xmlns="http://www.w3.org/2000/svg" xmlns:xlink="http://www.w3.org/1999/xlink" x="0px" y="0px"
	 viewBox="0 0 1000 1000" style="enable-background:new 0 0 1000 1000;" xml:space="preserve">
<style type="text/css">
	.st0{fill:url(#SVGID_1_);}
	.st1{fill:#020202;}
</style>
<g>
	<g>
		<linearGradient id="SVGID_1_" gradientUnits="userSpaceOnUse" x1="441.0548" y1="671.7052" x2="816.8361" y2="573.2677">
			<stop  offset="0" style="stop-color:#7F6A00"/>
			<stop  offset="1" style="stop-color:#FFE494"/>
		</linearGradient>
		<path class="st0" d="M687,445.9c2.7,3.7,3.5,5,16.4,2.3c12.9-2.7,103.4-21.2,142.4-31.9c39-10.8,51-21.6,51-21.6
			c8.1,0.5,13-12.2,21-9.6c1.5,0.5,3.3,0.1,5,0.1c10.9,0.2,16.3,9.7,11,19.4c-1.4,2.6-3.1,5.1-4.1,7.9c-2.1,5.5-7.8,6.6-11.7,9.9
			c-1.8,1.5-3.8,2.9-5.7,4.4c-3,2.3-5.7,5.8-10.9,4.3c-2.4-0.7-4.1,2.7-6.2,4.2L707,497.6c-4.3,0.3-6.3,1.6-6.3,6.2l84.5,352.8
			c-0.1,1.6,1,2.7,1.7,4c5.6,10.2,11.4,20.2,16.6,30.6c2.7,5.3,3.6,11.3,3.5,17.3c-0.1,2.1,0.1,3.1,2.6,3.6c3.9,0.8,4.5,3.8,4.2,5.2
			s4.2,8.9,2.6,15.6c-1.6,6.7-3.8,10.3-7.5,15.1c-3.8,4.8-8.2,8.9-14.8,10.7c-4.8,1.4-7,1.3-9.1-3.2c-1.5-3.2-5.7-3.3-8.4-5.2
			c-3.8-2.6-9.2-1.7-12.9-5.1c-3.8-3.4-8.8-4.1-13.2-6c-5.5-2.3-9.9-11.9-7.9-18.3c1.6-4.9-0.1-9.5-0.5-14.2c-0.1-1-0.8-1.7-1.9-2
			c-4.9-1.5-5.1-5.5-4.4-9.5c0.4-2.4,1.7-4.7-0.8-6.7c-1-0.9-0.2-1.2,0.5-1.7c1.3-1,0.8-2.6-0.1-2.9c0,0-6.6-30.7-33.5-64.6
			S585.4,690.8,585.4,690.8c-0.3-1.1-1-2.3-2.4-2.2c-1.1,0-1.7,1-2.1,1.9c0,0-2.9,31.7-7.9,65.8c-5,34-25.1,135.3-25.1,135.3
			c1.3,7.1,3.4,15-1.7,22c-1.1,1.5,0.3,2.8,0.7,4.2c1.9,6.5-0.7,12.5-7,15.1c-1.2,0.5-1.7,0.7-2.1,2c-1.8,5.8-7.7,7.6-11.9,3.4
			c-2-2-3.8-3-6.5-1.9c-0.4,0.2-1.1,0.2-1.4,0.1c-5.7-2.8-12.4-1.4-18.1-3.9c-2.8-1.2-5.6-2.5-7.1-5.2c-4.6-8.3-9.9-16.4-11.9-25.9
			c-0.9-4,1.8-10.1,5.6-10.4c4.5-0.4,3.9-3.3,3.2-5.3c-1.7-5.1-0.5-9.4,2.2-13.6c0,0,21.2-50.8,34.3-162.2
			c4.3-36.9,7.6-47.5,7.6-47.5c1.2-2.9-0.9-8.6-2.3-11.7l-73.7-65.2c-0.6-1.1-1.8-1.2-3-1.4c-1.3-0.2-2.8-0.4-3.7-1.2
			c-4.9-4.2-11.3-4.7-16.6-7.4c-5.5-2.7-9.8-7.9-16.2-9.7c-1.3-0.4-2-2.1-2.1-3.7c0-0.8-0.7-2.2-0.8-2.1c-4.9,1.3-4.1-3.6-6.1-5.5
			c0.9-7.2,0.8-14.6,4.1-21.3c3.9,0.5,6.2-0.4,5.9-5.2c-0.3-3.6,3.1-6.1,5.6-7c5.1-1.8,7.5-6.5,12-9c5.4-3,10.2-4.6,15.1-1.5
			c0,0,31.6-4.7,48.5-8.7c16.9-4,51.7-11.7,51.7-11.7c1.2,0.3,2.9-7.5,3-8.9c0,0,4.2-32.3,10.3-77.9c6.1-45.6,10-105.3,10-105.3
			c1.8-5.1-0.1-10.6-0.7-15.8c-1.3-12.4,5-19.9,14.6-25.7c1.2-0.8,2.3-1.3,3.3-2.5c3.5-4,10-4.1,13.6-0.4c0.7,0.8,1.3,1.7,2.4,1.4
			c7.3-1.8,13.4,1.8,18.9,5.4c8.2,5.4,15,12.1,15.7,23.3L687,445.9z M608.4,528.2c-5.8,1.5-5.6,10.2-6.8,21.1
			c-1.2,7.6-10.7,80-10.7,80c0.2,4.8,1.5,6,4.6,9.3c3.1,3.3,107.1,113.2,107.1,113.2c1.6,1.2,2.3,4.4,4.9,2.4
			c2.3-1.7,2.4-4.2,0.9-7.1c-1.6-3.2-3.2-6.9-3.1-10.3l-51.7-207.6c-0.6-2.3-1.5-10.4-8.2-10.4C638.7,518.8,608.4,528.2,608.4,528.2
			z M621.8,388.6c0.8-1.9-1.2-4.6-2.6-6.7c-0.6-0.9-1.7-0.9-2.8-0.6c-1.3,0.4-1,1.4-0.9,2.4c0,0-0.5,17.1-2.3,43.6
			c-1.8,26.5-5.9,47.3-5.4,48.1c0.9,1.7,4.9,0.6,8.8-0.3c3.9-1,13.4-3.6,17.5-5.4c4.1-1.8,4.3-4.5,2.8-10.3
			c-0.5-2.4-4.6-19.1-4.8-19.8L621.8,388.6z M524,549.4c-8.1,1.7-27.2,6.1-26.3,9.5c0.8,2.9,13.7,11.7,21.8,18
			c8.1,6.3,22.6,19.5,23.9,18.6c1.6-1,2.6-12.8,4-24.7c1.4-11.9,4.3-24.5,1.7-26.2C546.6,543,532.1,547.7,524,549.4z"/>
		<path class="st1" d="M420.4,235.7c0.1-10,6.6-12.8,11.6-14.5c0,0,295.7-77.3,351.3-91.4c79.2-20,141.6-37.1,141.6-37.1
			c2.9-3.1,7.1-3.4,11.2-3.9c6.6-0.8,13-2.3,18.5-6.8c2.6-2.2,4.9-5.2,9.1-5.5c1.5-0.1,3.4-2.6,4.4-5c1.3-3.4,0.7-6.8,0.8-10.2
			c0.2-5.6-2.7-9.9-7.6-12.1c-4.9-2.2-10.2-4-15.1,0.4c-0.7,0.6-1.7,1.5-2.5,1.4c-7.4-0.7-14.7,2-20.3,5.3
			c0,0-140.6,42.5-350.4,85.7c-321.6,66.2-459.5,118.8-459.5,118.8c-2.8,2.4-4,4.2-6.4,1.5c-0.8-0.8-3.4-4-5.5-1.9
			c-2.9,2.9-2.8,0.9-4.8-0.4c-2-1.1-3.7-1.3-5.7-3c-2.7-2.3-4,0-6.2,0.8c-1.6,0.6-5.8,1.2-6.8,0.2c-3-2-6.5,0-8.2,2.2
			c-1.9,2.5-3.1,2.9-6,2.1c-2.2-0.7-4.9-1.1-6.5,1c-0.9,1.2-3.2,2.4-4,2.7c-3.5,1.5-5.2,2-8,5c-2.8,2.9-4.8,6.9-8.1,9
			c-4.2,2.6-5.5,6.3-6,10.4c-0.6,5.3,0.4,10.7-1.2,15.8c-1.7,5.5,0.6,10.1,2,15.1c0.5,1.7,2,2.4,2.2,4.3c0.7,5.3,4.3,8.2,9.1,9.4
			c6,1.6,12.2,2.5,17.7,5.9c4,2.5,8.7,0.9,13,2.1c2.8,0.8,5.8,3.4,8.7,0.7c3-2.8,5.4-1.6,8.7-0.4c4.5,1.7,9.7,1.6,13.6-1.5
			c1.8-1.4,3.2-1.6,5-2.2c2.8-0.9,6.4,0.3,8.1-3.4c1.9-4.3,22.5-26.5,26.4-25.7c0,0,40-20.6,104.7-41.4c87.5-28.1,95.6-25.9,98.4-25
			s4.9,1.3,6.3,3.2c1.7,2.3,2.7,4.8,2.6,6.9c0,0,3.7,82.1-11.9,250c-12.7,136.5-28.6,283.5-28.6,283.5c-1.5,5.4-4.3,14.3-4.5,19.5
			c-0.3,10.8,4.7,30.4,9.8,30.4c7.5,0.1,8.9-1.1,13.4-3.3c2.7-1.3,10.3-2.4,14.3-2.6c4.5-0.3,5.2-3.2,5.5-7.4
			c0.3-3.9,6.3-6.2,5.5-10.2c-0.3-1.3,1.7-5.2,3.3-6.1c2.2-1.2,1.8-3.3,1.9-5.2c0.1-4.5-3.3-9.1-2.4-13.6c0,0,17.8-194,35-359.2
			S420.4,235.7,420.4,235.7z"/>
	</g>
</g>
</svg>
